grf
version=1
nRows=59
nColumns=19
inDegrees=yes
endheader
time	ground_force_1_vx	ground_force_1_vy	ground_force_1_vz	ground_force_1_px	ground_force_1_py	ground_force_1_pz	ground_moment_1_mx	ground_moment_1_my	ground_moment_1_mz	ground_force_2_vx	ground_force_2_vy	ground_force_2_vz	ground_force_2_px	ground_force_2_py	ground_force_2_pz	ground_moment_2_mx	ground_moment_2_my	ground_moment_2_mz
1.220000	-54.900665	281.260451	2.992076	0.235663	-0.000050	0.316710	-0.000189	-0.218708	0.000404	58.583914	164.948128	-2.208982	-0.182807	-0.000309	0.221252	0.000861	1.507657	-0.001844
1.220667	-54.818204	282.309207	2.244211	0.235543	-0.000050	0.316689	-0.000183	-0.212461	0.000392	57.452345	160.734486	-2.327175	-0.181119	-0.000310	0.221585	0.000870	1.522828	-0.001863
1.221333	-54.768504	283.409150	1.487032	0.235320	-0.000051	0.316133	-0.000177	-0.205547	0.000380	56.296674	156.542896	-2.436942	-0.179688	-0.000311	0.221198	0.000878	1.537518	-0.001881
1.222000	-54.752474	284.556752	0.721145	0.235910	-0.000053	0.315475	-0.000171	-0.197970	0.000366	55.118309	152.376756	-2.538310	-0.180261	-0.000310	0.221454	0.000886	1.551716	-0.001898
1.222667	-54.770564	285.748516	-0.052732	0.236467	-0.000051	0.316804	-0.000164	-0.189737	0.000350	53.918795	148.239545	-2.631310	-0.179752	-0.000313	0.219551	0.000894	1.565423	-0.001915
1.223333	-54.822780	286.981043	-0.833802	0.236195	-0.000050	0.317000	-0.000156	-0.180853	0.000334	52.699830	144.134840	-2.715984	-0.179327	-0.000314	0.218907	0.000901	1.578643	-0.001931
1.224000	-54.908723	288.251064	-1.621209	0.236461	-0.000052	0.316290	-0.000148	-0.171327	0.000316	51.463260	140.066277	-2.792386	-0.181546	-0.000311	0.220190	0.000909	1.591388	-0.001947
1.224667	-55.027638	289.555443	-2.414041	0.236030	-0.000052	0.315878	-0.000139	-0.161170	0.000298	50.211059	136.037511	-2.860586	-0.182037	-0.000310	0.220699	0.000916	1.603670	-0.001962
1.225333	-55.178444	290.891200	-3.211327	0.236252	-0.000052	0.315964	-0.000130	-0.150396	0.000278	48.945301	132.052212	-2.920673	-0.180228	-0.000312	0.220421	0.000922	1.615500	-0.001976
1.226000	-55.359756	292.255552	-4.012049	0.236791	-0.000052	0.316219	-0.000120	-0.139023	0.000257	47.668151	128.114066	-2.972763	-0.179539	-0.000311	0.221110	0.000929	1.626886	-0.001990
1.226667	-55.569904	293.645905	-4.815151	0.236803	-0.000051	0.316651	-0.000110	-0.127067	0.000235	46.381838	124.226790	-3.017009	-0.179916	-0.000311	0.220988	0.000935	1.637829	-0.002004
1.227333	-55.806968	295.059861	-5.619546	0.236626	-0.000049	0.317648	-0.000099	-0.114553	0.000212	45.088632	120.394133	-3.053598	-0.178268	-0.000312	0.221312	0.000941	1.648328	-0.002016
1.228000	-56.068818	296.495235	-6.424128	0.236722	-0.000050	0.317375	-0.000088	-0.101506	0.000187	43.790815	116.619872	-3.082756	-0.180056	-0.000310	0.221602	0.000947	1.658381	-0.002029
1.228667	-56.353161	297.950050	-7.227782	0.237440	-0.000051	0.316914	-0.000076	-0.087960	0.000162	42.490689	112.907790	-3.104739	-0.179660	-0.000310	0.222056	0.000952	1.667982	-0.002041
1.229333	-56.657584	299.422521	-8.029410	0.237455	-0.000051	0.317285	-0.000064	-0.073952	0.000137	41.190569	109.261654	-3.119839	-0.179653	-0.000310	0.222231	0.000958	1.677122	-0.002052
1.230000	-56.979595	300.911050	-8.827937	0.237409	-0.000052	0.316646	-0.000051	-0.059520	0.000110	39.892773	105.685182	-3.128405	-0.180018	-0.000310	0.221795	0.000963	1.685791	-0.002062
1.230667	-57.316648	302.414202	-9.622307	0.237111	-0.000052	0.316495	-0.000039	-0.044707	0.000083	38.599617	102.182032	-3.130831	-0.180082	-0.000311	0.221341	0.000967	1.693980	-0.002072
1.231333	-57.666178	303.930679	-10.411445	0.236809	-0.000051	0.316909	-0.000025	-0.029560	0.000055	37.313411	98.755773	-3.127525	-0.181411	-0.000309	0.222114	0.000972	1.701683	-0.002082
1.232000	-58.025645	305.459298	-11.194227	0.237210	-0.000052	0.316523	-0.000012	-0.014134	0.000026	36.036435	95.409860	-3.118880	-0.180271	-0.000310	0.221718	0.000976	1.708896	-0.002091
1.232667	-58.392570	306.998982	-11.969460	0.238188	-0.000052	0.316662	0.000001	0.001512	-0.000003	34.770902	92.147599	-3.105276	-0.180679	-0.000311	0.221081	0.000980	1.715621	-0.002099
1.233333	-58.764551	308.548730	-12.735909	0.237577	-0.000053	0.316083	0.000015	0.017309	-0.000032	33.518938	88.972116	-3.087082	-0.182143	-0.000309	0.221963	0.000983	1.721870	-0.002106
1.234000	-59.139267	310.107569	-13.492323	0.237786	-0.000053	0.316242	0.000029	0.033189	-0.000061	32.282584	85.886324	-3.064651	-0.181865	-0.000309	0.221985	0.000987	1.727660	-0.002114
1.234667	-59.514487	311.674560	-14.237453	0.237752	-0.000053	0.316006	0.000042	0.049081	-0.000091	31.063785	82.892876	-3.038314	-0.181364	-0.000310	0.221609	0.000990	1.733010	-0.002120
1.235333	-59.888077	313.248822	-14.970045	0.238932	-0.000054	0.316222	0.000056	0.064913	-0.000120	29.864371	79.994136	-3.008381	-0.181345	-0.000309	0.221819	0.000992	1.737945	-0.002126
1.236000	-60.258009	314.829525	-15.688847	0.239461	-0.000054	0.316186	0.000070	0.080613	-0.000149	28.686040	77.192144	-2.975178	-0.180071	-0.000309	0.222321	0.000995	1.742484	-0.002132
1.236667	-60.622370	316.415856	-16.392618	0.238087	-0.000054	0.315626	0.000083	0.096106	-0.000177	27.530343	74.488615	-2.939074	-0.178442	-0.000311	0.221961	0.000997	1.746645	-0.002137
1.237333	-60.979379	318.007001	-17.080128	0.237569	-0.000053	0.316102	0.000096	0.111312	-0.000206	26.398684	71.884921	-2.900447	-0.180219	-0.000310	0.221895	0.001000	1.750444	-0.002141
1.238000	-61.327392	319.602113	-17.750143	0.238300	-0.000053	0.316111	0.000109	0.126145	-0.000233	25.292301	69.382084	-2.859641	-0.181367	-0.000309	0.222232	0.001001	1.753897	-0.002146
1.238667	-61.664907	321.200258	-18.401418	0.237943	-0.000053	0.315977	0.000121	0.140516	-0.000259	24.212267	66.980742	-2.816940	-0.182190	-0.000308	0.222522	0.001003	1.757017	-0.002149
1.239333	-61.990552	322.800389	-19.032707	0.238058	-0.000054	0.315731	0.000133	0.154336	-0.000285	23.159497	64.681141	-2.772577	-0.183234	-0.000308	0.222166	0.001005	1.759811	-0.002153
1.240000	-62.303097	324.401424	-19.642780	0.238263	-0.000054	0.315615	0.000144	0.167518	-0.000309	22.134764	62.483140	-2.726768	-0.183201	-0.000308	0.221669	0.001006	1.762281	-0.002156
1.240667	-62.601453	326.002362	-20.230430	0.238228	-0.000055	0.315188	0.000155	0.179980	-0.000332	21.138700	60.386208	-2.679714	-0.181515	-0.000309	0.221929	0.001007	1.764421	-0.002159
1.241333	-62.884674	327.602310	-20.794482	0.238345	-0.000055	0.315056	0.000165	0.191643	-0.000354	20.171802	58.389404	-2.631606	-0.181988	-0.000308	0.222511	0.001009	1.766223	-0.002161
1.242000	-63.151943	329.200387	-21.333826	0.238837	-0.000054	0.315965	0.000175	0.202439	-0.000374	19.234450	56.491382	-2.582614	-0.182150	-0.000310	0.221138	0.001009	1.767674	-0.002162
1.242667	-63.402538	330.795661	-21.847443	0.238026	-0.000054	0.315868	0.000183	0.212305	-0.000392	18.326911	54.690410	-2.532886	-0.178626	-0.000310	0.222190	0.001010	1.768764	-0.002164
1.243333	-63.635820	332.387137	-22.334404	0.238385	-0.000055	0.315463	0.000191	0.221190	-0.000408	17.449317	52.984397	-2.482553	-0.181552	-0.000307	0.223593	0.001010	1.769481	-0.002165
1.244000	-63.851235	333.973689	-22.793858	0.237592	-0.000057	0.313902	0.000198	0.229051	-0.000423	16.601659	51.370921	-2.431743	-0.183628	-0.000305	0.224237	0.001011	1.769812	-0.002165
1.244667	-64.048326	335.553937	-23.225031	0.238501	-0.000054	0.315736	0.000203	0.235846	-0.000436	15.783801	49.847285	-2.380593	-0.183599	-0.000306	0.223688	0.001011	1.769747	-0.002165
1.245333	-64.226739	337.126223	-23.627212	0.239095	-0.000054	0.316055	0.000208	0.241532	-0.000446	14.995511	48.410575	-2.329269	-0.183609	-0.000307	0.222500	0.001010	1.769274	-0.002164
1.246000	-64.386211	338.688757	-23.999755	0.238698	-0.000055	0.315229	0.000212	0.246070	-0.000454	14.236480	47.057687	-2.277950	-0.183442	-0.000308	0.221989	0.001010	1.768383	-0.002163
1.246667	-64.526573	340.239758	-24.342104	0.238244	-0.000054	0.315513	0.000215	0.249425	-0.000461	13.506319	45.785326	-2.226812	-0.184050	-0.000307	0.222447	0.001009	1.767061	-0.002162
1.247333	-64.647744	341.777517	-24.653814	0.238536	-0.000055	0.315386	0.000217	0.251574	-0.000465	12.804550	44.590012	-2.176014	-0.183555	-0.000306	0.223556	0.001008	1.765296	-0.002160
1.248000	-64.749748	343.300409	-24.934559	0.238189	-0.000056	0.314886	0.000218	0.252500	-0.000466	12.130629	43.468118	-2.125709	-0.183590	-0.000306	0.223468	0.001007	1.763075	-0.002157
1.248667	-64.832694	344.806924	-25.184134	0.238476	-0.000054	0.316059	0.000218	0.252193	-0.000466	11.483967	42.415881	-2.076036	-0.182568	-0.000308	0.222106	0.001005	1.760394	-0.002154
1.249333	-64.896769	346.295678	-25.402465	0.238944	-0.000056	0.314948	0.000216	0.250659	-0.000463	10.863940	41.429407	-2.027120	-0.182325	-0.000310	0.221166	0.001003	1.757248	-0.002150
1.250000	-64.942215	347.765439	-25.589619	0.238949	-0.000056	0.315178	0.000214	0.247911	-0.000458	10.269894	40.504694	-1.979069	-0.183800	-0.000308	0.222150	0.001001	1.753636	-0.002145
1.250667	-64.969329	349.215156	-25.745794	0.239045	-0.000055	0.315365	0.000210	0.243975	-0.000451	9.701153	39.637696	-1.931982	-0.185556	-0.000304	0.224295	0.000999	1.749553	-0.002140
1.251333	-64.978447	350.643986	-25.871319	0.239359	-0.000057	0.314920	0.000206	0.238883	-0.000441	9.157037	38.824384	-1.885947	-0.186537	-0.000305	0.223130	0.000996	1.744994	-0.002135
1.252000	-64.969925	352.051252	-25.966652	0.239305	-0.000056	0.315215	0.000201	0.232675	-0.000430	8.636868	38.060777	-1.841046	-0.184731	-0.000307	0.222383	0.000994	1.739951	-0.002129
1.252667	-64.944129	353.436401	-26.032384	0.238839	-0.000056	0.315187	0.000194	0.225403	-0.000416	8.139970	37.342926	-1.797348	-0.184611	-0.000308	0.221511	0.000990	1.734416	-0.002122
1.253333	-64.901446	354.799009	-26.069234	0.238922	-0.000056	0.315207	0.000187	0.217125	-0.000401	7.665670	36.666905	-1.754910	-0.184510	-0.000307	0.222202	0.000987	1.728379	-0.002114
1.254000	-64.842303	356.138790	-26.078033	0.239053	-0.000055	0.315599	0.000179	0.207909	-0.000384	7.213299	36.028825	-1.713779	-0.184773	-0.000306	0.222766	0.000983	1.721830	-0.002106
1.254667	-64.767148	357.455585	-26.059686	0.239414	-0.000058	0.314291	0.000171	0.197828	-0.000365	6.782203	35.424856	-1.673995	-0.185266	-0.000306	0.222804	0.000979	1.714756	-0.002098
1.255333	-64.676443	358.749358	-26.015139	0.239381	-0.000058	0.314153	0.000161	0.186967	-0.000345	6.371747	34.851236	-1.635598	-0.185476	-0.000306	0.222471	0.000975	1.707140	-0.002088
1.256000	-64.570646	360.020204	-25.945378	0.239334	-0.000057	0.314597	0.000151	0.175416	-0.000324	5.981315	34.304286	-1.598626	-0.185729	-0.000309	0.220293	0.000970	1.698962	-0.002078
1.256667	-64.450233	361.268352	-25.851439	0.239555	-0.000058	0.314148	0.000141	0.163271	-0.000302	5.610310	33.780405	-1.563100	-0.187651	-0.000308	0.219683	0.000965	1.690198	-0.002068
1.257333	-64.315713	362.494139	-25.734418	0.239315	-0.000058	0.314180	0.000130	0.150631	-0.000278	5.258150	33.276072	-1.529010	-0.189577	-0.000306	0.221047	0.000960	1.680817	-0.002056
1.258000	-64.167631	363.697977	-25.595463	0.239927	-0.000058	0.314199	0.000119	0.137598	-0.000254	4.924275	32.787843	-1.496319	-0.188014	-0.000307	0.220999	0.000954	1.670786	-0.002044
1.258667	-64.006573	364.880347	-25.435758	0.240443	-0.000060	0.313420	0.000107	0.124273	-0.000230	4.608160	32.312366	-1.464983	-0.188388	-0.000306	0.221460	0.000948	1.660067	-0.002031
